<svg width="210" height="60.52" xmlns="http://www.w3.org/2000/svg" viewBox="0 0 210 60.52"><path d="M210 58.104a2.352 2.352 0 0 1-2.358 2.357 2.352 2.352 0 0 1-2.358-2.357v-2.408a2.353 2.353 0 0 1 2.358-2.357c.679 0 1.57.305 2.011.873a.429.429 0 0 1 .102.263.447.447 0 0 1-.442.432.41.41 0 0 1-.322-.17l-.068-.067c-.34-.322-.814-.483-1.281-.483-.831 0-1.51.678-1.51 1.509v2.408c0 .831.678 1.509 1.51 1.509s1.511-.679 1.511-1.509v-.746h-1.443c-.28 0-.425-.212-.425-.424s.144-.424.425-.424h1.866a.43.43 0 0 1 .424.424v1.17zM202.48 59.952c0 .313-.178.492-.382.492-.144 0-.288-.085-.407-.271l-2.91-4.807v4.587c0 .279-.212.424-.424.424s-.425-.144-.425-.424v-6.104c0-.313.178-.492.382-.492.144 0 .288.085.408.271l2.91 4.807v-4.587c0-.279.212-.424.424-.424s.424.144.424.424v6.104zM195.044 58.104a2.352 2.352 0 0 1-2.358 2.357 2.353 2.353 0 0 1-2.359-2.357v-4.256c0-.279.212-.424.425-.424.212 0 .424.144.424.424v4.256c0 .831.679 1.509 1.511 1.509s1.51-.679 1.51-1.509v-4.256c0-.279.212-.424.425-.424.212 0 .424.144.424.424v4.256zM187.439 60.376h-3.181a.432.432 0 0 1-.425-.424v-6.104c0-.279.212-.424.425-.424.212 0 .424.144.424.424v5.68h2.757c.28 0 .425.212.425.424s-.145.424-.425.424zM180.843 60.384a.4.4 0 0 1-.331-.178l-2.256-3.027-.951 1.094v1.679c0 .279-.212.424-.424.424s-.425-.144-.425-.424v-6.104c0-.279.212-.424.425-.424.212 0 .424.144.424.424v3.137l2.961-3.417a.396.396 0 0 1 .314-.153c.229 0 .441.203.441.432a.44.44 0 0 1-.11.28l-2.079 2.391 2.359 3.179a.414.414 0 0 1 .093.254c.001.239-.22.433-.441.433zM173.62 59.587s-.051.068-.144.153c-.5.475-1.179.721-1.866.721a2.352 2.352 0 0 1-2.358-2.357v-2.408a2.353 2.353 0 0 1 2.358-2.357c.679 0 1.57.305 2.011.873a.429.429 0 0 1 .102.263.447.447 0 0 1-.442.432.41.41 0 0 1-.322-.17l-.068-.067c-.34-.322-.814-.483-1.281-.483-.831 0-1.51.678-1.51 1.509v2.408c0 .831.678 1.509 1.51 1.509.458 0 1.044-.178 1.349-.551a.412.412 0 0 1 .322-.161c.229 0 .459.195.459.424a.372.372 0 0 1-.12.262zM166.364 60.376h-2.715c-.28 0-.425-.212-.425-.424s.144-.424.425-.424h.933v-5.256h-.933c-.28 0-.425-.212-.425-.424s.144-.424.425-.424h2.715c.28 0 .424.212.424.424s-.144.424-.424.424h-.934v5.256h.934c.28 0 .424.212.424.424s-.145.424-.424.424zM161.082 53.958l-1.697 6.172c-.076.254-.246.39-.407.39-.169 0-.34-.127-.408-.381l-1.468-4.824-1.459 4.824c-.076.254-.237.381-.408.381-.169 0-.34-.136-.407-.39l-1.697-6.172a.615.615 0 0 1-.017-.127c0-.254.22-.407.441-.407.17 0 .331.093.399.313l1.307 4.756 1.442-4.764c.068-.255.237-.382.399-.382.17 0 .331.127.408.382l1.443 4.764 1.306-4.756a.399.399 0 0 1 .399-.313c.22 0 .441.152.441.407a.615.615 0 0 1-.017.127zM150.822 54.272h-1.612v5.68c0 .279-.212.424-.425.424-.212 0-.424-.144-.424-.424v-5.68h-1.612c-.28 0-.425-.212-.425-.424s.144-.424.425-.424h4.072c.28 0 .424.212.424.424s-.143.424-.423.424zM143.946 59.952c0 .313-.178.492-.382.492-.144 0-.288-.085-.407-.271l-2.91-4.807v4.587c0 .279-.212.424-.424.424s-.425-.144-.425-.424v-6.104c0-.313.178-.492.382-.492.144 0 .288.085.408.271l2.91 4.807v-4.587c0-.279.212-.424.424-.424s.424.144.424.424v6.104zM136.257 60.376h-3.181a.432.432 0 0 1-.425-.424v-6.104c0-.229.195-.424.425-.424h3.181c.28 0 .425.212.425.424s-.144.424-.425.424H133.5v2.051h2.503c.28 0 .425.212.425.424s-.144.424-.425.424H133.5v2.357h2.757c.28 0 .425.212.425.424-.001.212-.145.424-.425.424zM127.913 60.376h-1.764a.432.432 0 0 1-.425-.424v-6.104c0-.229.195-.424.425-.424h1.764c1.044 0 1.892.848 1.892 1.882 0 .568-.314 1.17-.848 1.45.475.279.976.915.976 1.602a2.018 2.018 0 0 1-2.02 2.018zm0-4.027a1.04 1.04 0 0 0 1.044-1.034c0-.577-.467-1.042-1.044-1.042h-1.34v2.077h1.34zm0 .848h-1.34v2.331h1.34c.645 0 1.171-.526 1.171-1.161 0-.645-.526-1.17-1.171-1.17zM122.582 60.376h-3.181a.432.432 0 0 1-.425-.424v-6.104c0-.229.195-.424.425-.424h3.181c.28 0 .425.212.425.424s-.144.424-.425.424h-2.757v2.051h2.503c.28 0 .425.212.425.424s-.144.424-.425.424h-2.503v2.357h2.757c.28 0 .425.212.425.424-.001.212-.145.424-.425.424zM116.495 53.958l-1.697 6.172c-.076.254-.246.39-.407.39-.169 0-.34-.127-.408-.381l-1.468-4.824-1.459 4.824c-.077.254-.237.381-.408.381-.169 0-.34-.136-.407-.39l-1.697-6.172c-.008-.042-.017-.085-.017-.127 0-.254.22-.407.441-.407.17 0 .331.093.399.313l1.307 4.756 1.442-4.764c.068-.255.237-.382.399-.382.17 0 .331.127.408.382l1.443 4.764 1.306-4.756a.399.399 0 0 1 .399-.313c.22 0 .441.152.441.407 0 .042-.009.085-.017.127z" fill="#a09e9c"/><path d="M208.766 44.155c-.617 0-1.233-.431-1.233-1.233V21.968c0-4.931-4.009-8.937-8.944-8.937-4.934 0-8.943 4.006-8.943 8.937v20.954c0 .802-.617 1.233-1.234 1.233s-1.234-.431-1.234-1.233V21.968c0-6.287 5.119-11.402 11.411-11.402S210 15.681 210 21.968v20.954c0 .802-.617 1.233-1.234 1.233zM167.445 44.771c-6.291 0-11.411-5.115-11.411-11.402V21.968c0-6.287 5.119-11.402 11.411-11.402s11.41 5.115 11.41 11.402v11.401c0 6.287-5.119 11.402-11.41 11.402zm8.943-22.803c0-4.931-4.009-8.937-8.943-8.937-4.935 0-8.944 4.006-8.944 8.937v11.401c0 4.931 4.009 8.937 8.944 8.937 4.934 0 8.943-4.006 8.943-8.937V21.968zM145.18 12.415c0-.802.617-1.233 1.234-1.233s1.234.431 1.234 1.233v30.507c0 .802-.617 1.233-1.234 1.233s-1.234-.431-1.234-1.233V12.415zM126.863 44.771c-2.96 0-7.093-1.294-8.881-4.005a1.142 1.142 0 0 1-.247-.678c0-.679.617-1.233 1.295-1.233.678 0 .925.493 1.296.924 1.665 1.725 4.194 2.527 6.537 2.527 4.996 0 8.388-2.958 8.388-6.656 0-9.368-17.331-6.04-17.331-16.888 0-5.361 4.688-8.196 9.375-8.196 3.268 0 7.093 1.725 8.881 4.56.185.247.247.493.247.678 0 .678-.678 1.233-1.295 1.233-.74 0-.987-.555-1.419-1.048-1.604-1.849-3.886-2.958-6.414-2.958-3.886 0-6.909 2.219-6.909 5.732 0 8.382 17.332 5.239 17.332 16.888.001 5.546-4.996 9.12-10.855 9.12z" fill="#0d64aa"/><path d="M107.806 12.415c0-.802.617-1.233 1.234-1.233s1.234.431 1.234 1.233v30.507c0 .802-.617 1.233-1.234 1.233s-1.234-.431-1.234-1.233V12.415z" fill="#0069a4"/><path d="M89.737 43.353c-.247.679-.74.986-1.172.986s-.863-.308-1.172-.986L75.675 12.846c-.309-.863.308-1.664 1.233-1.664.432 0 .863.247 1.11.802l10.547 27.487 10.547-27.487c.247-.555.678-.802 1.11-.802.925 0 1.542.802 1.233 1.664L89.737 43.353z" fill="#0d64aa"/><path d="M9.592 6.483V0h12.677v30.195c0 4.26 3.523 7.693 7.699 7.693 4.235 0 7.848-3.2 7.848-7.723v-18.95h7.163l.003 18.98c-.034 4.319 3.479 7.693 7.798 7.693 4.157 0 7.822-3.374 7.822-7.693v-18.98h7.12l-.001 18.98c0 9.273-6.995 14.4-13.906 14.4-5.265 0-9.317-1.649-12.299-6.274-3.094 4.604-7.073 6.274-12.338 6.274-6.911 0-14.058-5.127-14.058-14.4V6.486l-5.528-.003zM0 11.215h7.405V44.11H0V11.215z" fill="#a09e9c"/></svg>