<svg xmlns="http://www.w3.org/2000/svg" viewBox="0 0 145 25.375" width="145" height="25.375" style="enable-background:new 0 0 145 25.375" xml:space="preserve"><path d="M137.752 4.532a2.718 2.718 0 0 1-2.718 2.718h-7.673a.483.483 0 0 0-.483.483v3.142h10.874v.907a2.72 2.72 0 0 1-2.718 2.72h-8.156v3.142c0 .266.216.483.483.483h10.391v.907a2.719 2.719 0 0 1-2.718 2.718h-9.063a2.72 2.72 0 0 1-2.72-2.718V6.343a2.72 2.72 0 0 1 2.72-2.718h11.781v.907M105.67 7.251c-.3 0-.544.243-.544.543v4.895h8.158a2.723 2.723 0 0 0 2.714-2.869c-.078-1.449-1.309-2.569-2.761-2.569h-7.567m13.957 2.638a6.343 6.343 0 0 1-3.523 5.762l3.523 6.1h-3.14a1.814 1.814 0 0 1-1.569-.908l-2.616-4.531h-7.176v2.72a2.719 2.719 0 0 1-2.718 2.72h-.907V6.344a2.72 2.72 0 0 1 2.72-2.72h8.889c3.502 0 6.474 2.764 6.517 6.265m-73.246-5.52L40.26 10.49a.544.544 0 0 1-.769 0l-6.113-6.114a2.57 2.57 0 0 0-1.813-.75A2.563 2.563 0 0 0 29 6.189v15.562h.907a2.72 2.72 0 0 0 2.718-2.72V9.333c0-.215.26-.323.412-.171l4.915 4.915a2.717 2.717 0 0 0 3.845 0l4.915-4.915a.243.243 0 0 1 .414.171v12.418h.907a2.72 2.72 0 0 0 2.718-2.72V6.163a2.538 2.538 0 0 0-2.538-2.538h-.037c-.674 0-1.319.268-1.795.744M22.656 21.751a2.719 2.719 0 0 0 2.718-2.72V3.625h-.905a2.72 2.72 0 0 0-2.72 2.718V21.75h.907m-10.955-9.062c1.464 0 2.724-1.121 2.795-2.582a2.721 2.721 0 0 0-2.715-2.856H4.169a.544.544 0 0 0-.544.544v4.894h8.076m-.086-9.063c3.555 0 6.576 2.91 6.509 6.465a6.342 6.342 0 0 1-6.343 6.222H3.625v2.72a2.718 2.718 0 0 1-2.72 2.718H0V6.344a2.72 2.72 0 0 1 2.718-2.72h8.897m77.199 14.501c2.998 0 5.438-2.44 5.438-5.438s-2.44-5.438-5.438-5.438a5.438 5.438 0 0 0-4.529 2.433l-1.995 3.005 1.979 2.984a5.439 5.439 0 0 0 4.545 2.454m0-14.5a9.063 9.063 0 1 1-7.555 14.069l-1.145-1.724-2.467 3.72a12.678 12.678 0 0 1-10.583 5.685c-7.007 0-12.688-5.679-12.688-12.688C54.376 5.681 60.057 0 67.063 0c4.401 0 8.277 2.239 10.553 5.641l.321.485L75.76 9.41l-1.19-1.795a9.062 9.062 0 0 0-7.507-3.99C62.066 3.625 58 7.69 58 12.688s4.065 9.063 9.063 9.063a9.061 9.061 0 0 0 7.554-4.06l6.634-9.999a9.053 9.053 0 0 1 7.563-4.067M143.188 3.626c-.999 0-1.812.813-1.812 1.813 0 .999.813 1.812 1.812 1.812a1.814 1.814 0 0 0 0-3.625zm0 3.281a1.469 1.469 0 0 1 0-2.936 1.469 1.469 0 0 1 0 2.936zm.863-1.735c-.003-.328-.306-.596-.634-.596h-.85a.242.242 0 0 0-.242.242v1.485h.164c.1 0 .181-.081.181-.181v-.338h.683l.247.428a.181.181 0 0 0 .157.091h.292l-.334-.581a.607.607 0 0 0 .336-.55zm-.604.266h-.776v-.482c0-.02.016-.036.036-.036h.728c.135 0 .257.099.27.234a.259.259 0 0 1-.258.284z"/></svg>