<svg xmlns="http://www.w3.org/2000/svg" viewBox="0 0 240 61.2" width="240" height="61.2"><path d="M198.3 47.5V58h-1v-1.5c-.6 1-1.7 1.6-3 1.6-2.1 0-3.9-1.7-3.9-3.9s1.8-3.9 3.9-3.9c1.3 0 2.4.6 3 1.6v-4.5h1v.1zm-1 6.8c0-1.7-1.3-3-3-3s-3 1.3-3 3 1.3 3 3 3 3-1.4 3-3zM187 47.1h1V58h-1V47.1zM185 50.4v1c-1.2 0-2.4.6-2.4 2.5V58h-1v-7.5h1v1.2c.6-1 1.5-1.3 2.4-1.3zM171.4 54.3c0-2.2 1.8-3.9 3.9-3.9 2.2 0 3.9 1.7 3.9 3.9s-1.8 3.9-3.9 3.9c-2.2 0-3.9-1.7-3.9-3.9zm6.9 0c0-1.7-1.3-3-3-3s-3 1.3-3 3 1.3 3 3 3 3-1.4 3-3zM156.1 47.5h1.1l2.6 9.1 2.7-9.1h1.2l2.7 9.1 2.6-9.1h1.1l-3 10.5h-1.3l-2.7-9.1-2.7 9.1h-1.3l-3-10.5zM148.4 47.1h1V58h-1V47.1zM145.5 50.5V58h-1v-1.5c-.6 1-1.7 1.6-3 1.6-2.1 0-3.9-1.7-3.9-3.9s1.8-3.9 3.9-3.9c1.3 0 2.4.6 3 1.6v-1.5h1v.1zm-1 3.8c0-1.7-1.3-3-3-3s-3 1.3-3 3 1.3 3 3 3 3-1.4 3-3zM134 51.5V56c0 1.3.7 1.2 2.2 1.1v.9c-2 .3-3.1-.2-3.1-2v-4.5h-1.6v-1h1.6v-1.8l1-.3v2.1h2.2v1H134zM128.2 48.2c0-.4.3-.7.7-.7s.7.3.7.7-.3.7-.7.7-.7-.3-.7-.7zm.2 2.3h1V58h-1v-7.5zM125.6 50.5v7.2c0 2.3-1.8 3.5-3.8 3.5-1.7 0-3-.7-3.6-1.8l.9-.5c.4.8 1.1 1.4 2.7 1.4 1.7 0 2.8-1 2.8-2.5v-1.2c-.6 1-1.7 1.6-3 1.6-2.1 0-3.9-1.7-3.9-3.9s1.8-3.9 3.9-3.9c1.3 0 2.4.6 3 1.6v-1.5h1zm-1 3.8c0-1.7-1.3-3-3-3s-3 1.3-3 3 1.3 3 3 3 3-1.4 3-3zM114.1 48.2c0-.4.3-.7.7-.7s.7.3.7.7-.3.7-.7.7-.7-.3-.7-.7zm.2 2.3h1V58h-1v-7.5zM111.9 52.8c0 2.9-2.1 5.3-4.9 5.3h-4.1V47.5h4.1c2.8 0 4.9 2.4 4.9 5.3zm-1 0c0-2.4-1.6-4.3-3.9-4.3h-3V57h3c2.3 0 3.9-1.9 3.9-4.2zM95.9 54.3v.5h-6.6c.2 1.5 1.4 2.5 3 2.5 1.2 0 2-.6 2.4-1.3l.9.5c-.6 1-1.8 1.7-3.3 1.7-2.4 0-4-1.7-4-3.9s1.6-3.9 3.9-3.9c2.3-.1 3.7 1.8 3.7 3.9zm-6.6-.5h5.6c-.2-1.6-1.4-2.5-2.7-2.5-1.6 0-2.7 1-2.9 2.5zM86 53.4V58h-1v-4.6c0-1.3-.7-2.1-2-2.1s-2.4.8-2.4 2.8V58h-1V47.5h1v4.2c.6-.9 1.5-1.4 2.5-1.4 1.8 0 2.9 1.2 2.9 3.1zM75.2 51.5V56c0 1.3.7 1.2 2.2 1.1v.9c-2 .3-3.1-.2-3.1-2v-4.5h-1.6v-1h1.6v-1.8l1-.3v2.1h2.2v1h-2.3zM66.3 53.4V58h-1v-4.6c0-1.3-.7-2.1-2-2.1s-2.4.8-2.4 2.8V58h-1v-7.5h1v1.2c.6-.9 1.5-1.4 2.5-1.4 1.7 0 2.9 1.2 2.9 3.1zM57.7 50.5L55.4 58h-1.1l-1.9-6-1.9 6h-1.1l-2.3-7.5h1l1.8 6.2 2-6.2h1l2 6.2 1.8-6.2h1zM34.5 52.8c0-3 2.4-5.4 5.4-5.4s5.4 2.4 5.4 5.4-2.4 5.4-5.4 5.4-5.4-2.4-5.4-5.4zm9.8 0c0-2.4-1.9-4.4-4.4-4.4s-4.4 2-4.4 4.4 1.9 4.4 4.4 4.4 4.4-2 4.4-4.4zM238.4 8.5c0-.5-.5-1-1-1H236c-.2 0-.4.2-.4.4v2.5h.3c.2 0 .3-.1.3-.3v-.5h1.1l.5.8.1.1h.6l-.6-1c.3-.2.5-.6.5-1zm-2.2-.4h1.2c.2 0 .4.2.4.4 0 .3-.2.5-.4.5h-1.3v-.8l.1-.1z" fill="#6428b4"/><path d="M237 6.6c1.3 0 2.4 1.1 2.4 2.4s-1.1 2.4-2.4 2.4-2.4-1.1-2.4-2.4 1.1-2.4 2.4-2.4m0-.6c-1.7 0-3 1.3-3 3s1.3 3 3 3 3-1.3 3-3-1.3-3-3-3zM228 7.5V6h-19.5c-2.5 0-4.5 2-4.5 4.5v21c0 2.5 2 4.5 4.5 4.5h15c2.5 0 4.5-2 4.5-4.5V30h-17.2c-.4 0-.8-.4-.8-.8V24h13.5c2.5 0 4.5-2 4.5-4.5V18h-18v-5.2c0-.4.4-.8.8-.8h12.7c2.5 0 4.5-2 4.5-4.5zM198 16.4c-.1-5.8-5-10.4-10.8-10.4h-14.7c-2.5 0-4.5 2-4.5 4.5V36h1.5c2.5 0 4.5-2 4.5-4.5V27h11.9l4.3 7.5c.5.9 1.5 1.5 2.6 1.5h5.2l-5.8-10.1c3.5-1.7 5.9-5.4 5.8-9.5zM174.9 12h12.5c2.4 0 4.4 1.9 4.6 4.3.1 2.6-1.9 4.7-4.5 4.7H174v-8.1c0-.5.4-.9.9-.9zM147 6c-5.2 0-9.8 2.7-12.5 6.7l-11 16.6c-2.7 4-7.3 6.7-12.5 6.7-8.3 0-15-6.7-15-15s6.7-15 15-15c5.2 0 9.7 2.6 12.4 6.6l2 3 3.6-5.4-.5-.8C124.7 3.7 118.3 0 111 0 99.4 0 90 9.4 90 21s9.4 21 21 21c7.3 0 13.8-3.7 17.5-9.4l4.1-6.2 1.9 2.9c2.7 4 7.3 6.7 12.5 6.7 8.3 0 15-6.7 15-15s-6.7-15-15-15zm0 24c-3.1 0-5.9-1.6-7.5-4.1l-3.3-4.9 3.3-5c1.6-2.4 4.4-4 7.5-4 5 0 9 4 9 9s-4 9-9 9zM76.8 7.2L66.6 17.4c-.4.4-.9.4-1.3 0L55.2 7.2c-.8-.8-1.9-1.2-3-1.2-2.3 0-4.2 1.9-4.2 4.2V36h1.5c2.5 0 4.5-2 4.5-4.5V15.4c0-.4.4-.5.7-.3l8.1 8.1c1.8 1.8 4.6 1.8 6.4 0l8.1-8.1c.3-.3.7-.1.7.3V36h1.5c2.5 0 4.5-2 4.5-4.5V10.2C84 7.9 82.1 6 79.8 6h-.1c-1.1 0-2.1.4-2.9 1.2zM37.5 36H36V10.5C36 8 38 6 40.5 6H42v25.5c0 2.5-2 4.5-4.5 4.5zM19.2 6H4.5C2 6 0 8 0 10.5V36h1.5C4 36 6 34 6 31.5V27h13.5c5.7 0 10.4-4.6 10.5-10.3C30.1 10.8 25.1 6 19.2 6zm.2 15H6v-8.1c0-.5.4-.9.9-.9h12.6c2.6 0 4.6 2.1 4.5 4.7-.1 2.4-2.2 4.3-4.6 4.3z" fill="#6428b4"/></svg>